# xmcd
#
# Track frame offsets:
#	182
#	11467
#	27730
#	41997
#	56557
#	68900
#	82757
#	96202
#	111490
#	124055
#	139487
#	155872
#	171692
#	189165
#
# Disc length: 2697 seconds
#
# Revision: 1
# Processed by: cddbd v1.4PL0 Copyright (c) Steve Scherf et al.
# Submitted via: audiograbber 1.81.01
#
DISCID=ce0a870e
DTITLE=Tennessee - Wir sind die Cowboys von der Elbe
DYEAR=2002
DGENRE=Country
TTITLE0=(Wir spielen) Cowboy und Wildwest
TTITLE1=Ich wär' so gern in Nashville
TTITLE2=Hallo, liebe Hörer
TTITLE3=Junge komm doch wieder
TTITLE4=Ich bin K.O.
TTITLE5=Heirats-Angebote
TTITLE6=Wir sind die Jungs
TTITLE7=Nur mit dir
TTITLE8=Halb 8
TTITLE9=Ich bin der Hausmann
TTITLE10=Deine Sterne lügen nicht
TTITLE11=Wirklich schade
TTITLE12=Blue Train
TTITLE13=Run Boy Run
EXTD=
EXTT0=
EXTT1=
EXTT2=
EXTT3=
EXTT4=
EXTT5=
EXTT6=
EXTT7=
EXTT8=
EXTT9=
EXTT10=
EXTT11=
EXTT12=
EXTT13=
PLAYORDER=
